<svg width="45" height="45" viewBox="0 0 45 45" fill="none" xmlns="http://www.w3.org/2000/svg">
<path fill-rule="evenodd" clip-rule="evenodd" d="M23.9715 0.84375C25.9198 0.84375 27.5938 2.18527 27.9604 4.04056L28.1233 4.86556C28.764 8.10832 32.2236 10.0448 35.4405 8.96141L36.2593 8.68565C38.0998 8.06581 40.1351 8.8005 41.1092 10.4364L42.5807 12.9073C43.5549 14.5432 43.1934 16.6194 41.7195 17.8548L41.064 18.4042C38.4876 20.5635 38.4876 24.4365 41.064 26.5958L41.7195 27.1452C43.1934 28.3806 43.5549 30.4568 42.5807 32.0927L41.1094 34.5636C40.1351 36.1995 38.0998 36.9342 36.2591 36.3143L35.4407 36.0385C32.2236 34.9549 28.764 36.8914 28.1233 40.1344L27.9604 40.9594C27.5938 42.8147 25.9198 44.1563 23.9715 44.1563H21.0285C19.0802 44.1563 17.4062 42.8147 17.0396 40.9596L16.8765 40.134C16.2358 36.8914 12.7762 34.9549 9.55916 36.0385L8.74086 36.3141C6.9003 36.9342 4.86497 36.1993 3.89072 34.5634L2.41931 32.0927C1.4451 30.4568 1.80646 28.3806 3.28042 27.1452L3.93604 26.5958C6.51232 24.4363 6.51232 20.5635 3.93604 18.4043L3.28042 17.8548C1.80646 16.6194 1.4451 14.5432 2.41931 12.9073L3.89077 10.4364C4.86499 8.80051 6.90026 8.06583 8.7408 8.68571L9.55933 8.96139C12.7763 10.0448 16.2358 8.10845 16.8765 4.86577L17.0396 4.04041C17.4062 2.1852 19.08 0.84375 21.0285 0.84375H23.9715ZM22.5 28.6875C25.9172 28.6875 28.6875 25.9172 28.6875 22.5C28.6875 19.0827 25.9172 16.3125 22.5 16.3125C19.0826 16.3125 16.3124 19.0827 16.3124 22.5C16.3124 25.9172 19.0826 28.6875 22.5 28.6875Z" fill="#FF5959"/>
</svg>
