<svg width="45" height="45" viewBox="0 0 45 45" fill="none" xmlns="http://www.w3.org/2000/svg">
<path d="M41.2412 2.33984C43.1192 2.33984 43.9624 4.69524 42.5107 5.88672L27.164 18.4814V35.6572L17.8369 41.9072V18.792L2.3945 5.87402C0.961303 4.67497 1.80903 2.33984 3.67771 2.33984H41.2412Z" fill="#1477A8"/>
<path d="M42.5107 5.88672L42.8279 6.27322L42.8279 6.27321L42.5107 5.88672ZM27.164 18.4814L26.8468 18.0949L26.664 18.245V18.4814H27.164ZM27.164 35.6572L27.4424 36.0726L27.664 35.9241V35.6572H27.164ZM17.8369 41.9072H17.3369V42.8441L18.1152 42.3226L17.8369 41.9072ZM17.8369 18.792H18.3369V18.5584L18.1577 18.4085L17.8369 18.792ZM2.3945 5.87402L2.07366 6.25751L2.07369 6.25753L2.3945 5.87402ZM41.2412 2.33984V2.83984C42.6499 2.83984 43.2821 4.60676 42.1935 5.50023L42.5107 5.88672L42.8279 6.27321C44.6427 4.78373 43.5885 1.83984 41.2412 1.83984V2.33984ZM42.5107 5.88672L42.1935 5.50021L26.8468 18.0949L27.164 18.4814L27.4812 18.868L42.8279 6.27322L42.5107 5.88672ZM27.164 18.4814H26.664V35.6572H27.164H27.664V18.4814H27.164ZM27.164 35.6572L26.8857 35.2419L17.5586 41.4919L17.8369 41.9072L18.1152 42.3226L27.4424 36.0726L27.164 35.6572ZM17.8369 41.9072H18.3369V18.792H17.8369H17.3369V41.9072H17.8369ZM17.8369 18.792L18.1577 18.4085L2.71532 5.49052L2.3945 5.87402L2.07369 6.25753L17.5161 19.1755L17.8369 18.792ZM2.3945 5.87402L2.71534 5.49054C1.64033 4.59115 2.27634 2.83984 3.67771 2.83984V2.33984V1.83984C1.34172 1.83984 0.282272 4.75878 2.07366 6.25751L2.3945 5.87402ZM3.67771 2.33984V2.83984H41.2412V2.33984V1.83984H3.67771V2.33984Z" fill="#164960"/>
</svg>
