<svg width="45" height="45" viewBox="0 0 45 45" fill="none" xmlns="http://www.w3.org/2000/svg">
<path d="M30.7103 11.6381C28.4784 9.85236 25.7689 8.4375 22.5 8.4375C14.7335 8.4375 8.4375 14.7335 8.4375 22.5C8.4375 30.2664 14.7335 36.5625 22.5 36.5625C28.6029 36.5625 33.8025 32.6726 35.7461 27.2355C36.0947 26.2603 37.0781 25.6065 38.0912 25.8212L39.9253 26.2101C40.9384 26.4247 41.5943 27.4241 41.2836 28.4121C38.7726 36.396 31.3155 42.1875 22.5 42.1875C11.6269 42.1875 2.8125 33.3731 2.8125 22.5C2.8125 11.6269 11.6269 2.8125 22.5 2.8125C27.7191 2.8125 31.7843 5.19088 34.7085 7.63988L38.0492 4.29917C38.5854 3.76292 39.3919 3.60251 40.0926 3.89272C40.7933 4.18294 41.25 4.86664 41.25 5.625V15.9375C41.25 16.973 40.4106 17.8125 39.375 17.8125H29.0625C28.3043 17.8125 27.6204 17.3557 27.3302 16.655C27.0401 15.9544 27.2004 15.1479 27.7367 14.6117L30.7103 11.6381Z" fill="#C1C1C1"/>
</svg>
