<svg width="45" height="45" viewBox="0 0 45 45" fill="none" xmlns="http://www.w3.org/2000/svg">
<path d="M15 2.8125V4.6875H5.625C4.58947 4.6875 3.75 5.52697 3.75 6.5625V8.4375C3.75 9.47303 4.58947 10.3125 5.625 10.3125H39.375C40.4106 10.3125 41.25 9.47303 41.25 8.4375V6.5625C41.25 5.52697 40.4106 4.6875 39.375 4.6875H30V2.8125C30 1.77697 29.1606 0.9375 28.125 0.9375H16.875C15.8395 0.9375 15 1.77697 15 2.8125Z" fill="#2A2A2A" fill-opacity="0.26"/>
<path d="M7.35547 14.0625H37.6435L35.8767 37.9155C35.659 40.8529 33.2125 43.125 30.267 43.125H14.732C11.7866 43.125 9.33993 40.8529 9.12236 37.9155L7.35547 14.0625Z" fill="#2A2A2A" fill-opacity="0.26"/>
</svg>
