<svg width="45" height="45" viewBox="0 0 45 45" fill="none" xmlns="http://www.w3.org/2000/svg">
<path d="M21.0283 2.34375H23.9717C25.2355 2.34383 26.2676 3.20955 26.4893 4.33105L26.6514 5.15625C27.4764 9.33199 31.8877 11.7403 35.9189 10.3828L36.7383 10.1074C37.9287 9.70659 39.2183 10.1931 39.8203 11.2041L41.292 13.6748C41.8839 14.6687 41.6745 15.9352 40.7559 16.7051L40.1006 17.2549C36.809 20.0137 36.8089 24.9863 40.1006 27.7451L40.7559 28.2949C41.6745 29.0649 41.8839 30.3313 41.292 31.3252L39.8203 33.7959C39.2182 34.807 37.9288 35.2933 36.7383 34.8926L35.9199 34.6172C32.0145 33.3018 27.752 35.5206 26.7393 39.457L26.6514 39.8438L26.4893 40.6689C26.2676 41.7905 25.2355 42.6562 23.9717 42.6562H21.0283C19.7645 42.6562 18.7323 41.7904 18.5107 40.6689L18.3477 39.8438V39.8428C17.5223 35.6674 13.1113 33.2594 9.08008 34.6172L8.26172 34.8926C7.14585 35.2684 5.94207 34.8648 5.2998 33.9795L5.17969 33.7959L3.70801 31.3252C3.11611 30.3312 3.32557 29.0648 4.24414 28.2949L4.89941 27.7451C8.1909 24.9862 8.19101 20.0137 4.89941 17.2549L4.24414 16.7051C3.32557 15.9352 3.11608 14.6688 3.70801 13.6748L5.17969 11.2041C5.78183 10.193 7.07136 9.70664 8.26172 10.1074L9.08008 10.3828H9.08105C13.1122 11.7402 17.5226 9.33188 18.3477 5.15625L18.5107 4.33105C18.7324 3.20955 19.7643 2.34383 21.0283 2.34375ZM22.5 14.8125C18.2542 14.8125 14.8125 18.2542 14.8125 22.5C14.8125 26.7456 18.2542 30.1875 22.5 30.1875C26.7456 30.1875 30.1875 26.7456 30.1875 22.5C30.1875 18.2542 26.7456 14.8125 22.5 14.8125Z" stroke="#DEBCBC" stroke-width="3"/>
</svg>
