<svg width="45" height="45" viewBox="0 0 45 45" fill="none" xmlns="http://www.w3.org/2000/svg">
<g clip-path="url(#clip0_2882_1170)">
<path d="M21.2266 12.3802C22.2671 11.221 23.537 10.1801 25.0075 9.33109C31.0851 5.82217 38.2885 6.92053 41.0966 11.7844C43.9047 16.6482 41.2543 23.4356 35.1766 26.9446C29.099 30.4535 21.8956 29.3551 19.0875 24.4913C18.2732 23.0809 17.9179 21.5086 17.9721 19.9015" stroke="#317BA1" stroke-opacity="0.64" stroke-width="4"/>
<path d="M23.8466 32.6208C22.8061 33.78 21.5363 34.8209 20.0658 35.6699C13.9881 39.1788 6.78478 38.0804 3.97665 33.2166C1.16852 28.3528 3.81899 21.5653 9.89663 18.0564C15.9743 14.5475 23.1776 15.6458 25.9857 20.5097C26.8001 21.9201 27.1554 23.4923 27.1012 25.0995" stroke="#317BA1" stroke-opacity="0.64" stroke-width="4"/>
</g>
<defs>
<clipPath id="clip0_2882_1170">
<rect width="45" height="45" fill="white"/>
</clipPath>
</defs>
</svg>
