<svg width="45" height="45" viewBox="0 0 45 45" fill="none" xmlns="http://www.w3.org/2000/svg">
<path fill-rule="evenodd" clip-rule="evenodd" d="M1.875 22.5C1.875 11.1091 11.1091 1.875 22.5 1.875C33.8908 1.875 43.125 11.1091 43.125 22.5C43.125 33.8908 33.8908 43.125 22.5 43.125C11.1091 43.125 1.875 33.8908 1.875 22.5ZM19.2188 20.625C19.2188 19.5894 20.0582 18.75 21.0938 18.75H23.9062C24.9418 18.75 25.7812 19.5894 25.7812 20.625V33.75C25.7812 34.7856 24.9418 35.625 23.9062 35.625H21.0938C20.0582 35.625 19.2188 34.7856 19.2188 33.75V20.625ZM26.25 13.125C26.25 11.0539 24.5711 9.375 22.5 9.375C20.4289 9.375 18.75 11.0539 18.75 13.125C18.75 15.1961 20.4289 16.875 22.5 16.875C24.5711 16.875 26.25 15.1961 26.25 13.125Z" fill="#AED993"/>
</svg>
